<mxfile host="app.diagrams.net" modified="2023-06-26T13:39:11.602Z" agent="Mozilla/5.0 (X11; Linux x86_64) AppleWebKit/537.36 (KHTML, like Gecko) Chrome/113.0.0.0 Safari/537.36" etag="YTpGITUdLT2VJOCR30vu" version="21.5.0" type="github">
  <diagram name="第 1 页" id="2tWCHP5qRfnW0nv7oK5U">
    <mxGraphModel dx="1442" dy="716" grid="1" gridSize="10" guides="1" tooltips="1" connect="1" arrows="1" fold="1" page="1" pageScale="1" pageWidth="827" pageHeight="1169" math="0" shadow="0">
      <root>
        <mxCell id="0" />
        <mxCell id="1" parent="0" />
        <mxCell id="Bjs8ewGi2bVI7GiNyhRq-1" value="One sRGB Image" style="rounded=0;whiteSpace=wrap;html=1;" vertex="1" parent="1">
          <mxGeometry x="130" y="220" width="160" height="60" as="geometry" />
        </mxCell>
      </root>
    </mxGraphModel>
  </diagram>
</mxfile>
